<svg width="186" height="40" viewBox="0 0 186 40" fill="none" xmlns="http://www.w3.org/2000/svg">
<path d="M28.6925 21.3333C29.0975 21.3333 29.4806 21.5175 29.7336 21.8338L34.0003 27.1671C34.3899 27.654 34.3899 28.346 34.0003 28.8329L29.7336 34.1663C29.4806 34.4826 29.0975 34.6667 28.6925 34.6667L10.6666 34.6667C7.72111 34.6667 5.33329 32.2789 5.33329 29.3333L5.33329 21.3333L28.6925 21.3333Z" fill="url(#paint0_linear_173_1261)"/>
<path d="M32 24.6667L34.0003 27.1671C34.3899 27.654 34.3899 28.346 34.0003 28.8329L32 31.3333L32 24.6667Z" fill="url(#paint1_linear_173_1261)"/>
<path d="M5.33337 14.6667C5.33337 13.9303 5.93033 13.3333 6.66671 13.3333H10.6667C11.4031 13.3333 12 13.9303 12 14.6667C12 15.4031 12.597 16 13.3334 16H17.3334C18.0698 16 18.6667 16.597 18.6667 17.3333V24.9697C18.9118 31.7277 22.1124 34.0343 24 34.6667H10.6667C7.72119 34.6667 5.33337 32.2789 5.33337 29.3333V14.6667Z" fill="url(#paint2_linear_173_1261)"/>
<rect x="13.3334" y="9.33334" width="5.33333" height="5.33333" rx="1.33333" fill="#FFBA42"/>
<rect x="5.33337" y="5.33334" width="6.66667" height="6.66667" rx="1.33333" fill="#F5A201"/>
<path d="M52.768 26.78H61.792V29.012H41.32V26.78H50.344V21.452H42.664V9.98H45.112V19.22H60.52V21.452H52.768V26.78ZM81.3259 24.788V18.14H77.6059V16.1H81.3259V13.964H77.6059V11.924H81.3259V9.5H83.7019V24.788H81.3259ZM65.2459 14.972H73.8139V12.02H65.1979V10.004H76.1659V16.916H67.5979V19.94H72.2059C75.0619 19.94 77.4379 19.652 78.6619 19.172V21.164C77.4859 21.62 74.9899 21.956 72.0379 21.956H65.2459V14.972ZM68.7019 27.596H84.1339V29.732H66.2539V23.828H68.7019V27.596ZM101.34 11.444V13.388H87.4199V11.444H93.1799V9.14H95.5799V11.444H101.34ZM106.044 15.116H108.924V17.396H106.044V24.86H103.668V9.5H106.044V15.116ZM94.3799 22.94C90.9719 22.94 88.3079 21.428 88.3079 18.74C88.3079 16.052 90.9719 14.54 94.3799 14.54C97.7879 14.54 100.428 16.052 100.428 18.74C100.428 21.428 97.7879 22.94 94.3799 22.94ZM94.3799 16.364C92.0759 16.364 90.6119 17.372 90.6119 18.74C90.6119 20.132 92.0759 21.116 94.3799 21.116C96.6839 21.116 98.1479 20.132 98.1479 18.74C98.1479 17.372 96.6839 16.364 94.3799 16.364ZM91.3079 24.116V27.62H106.596V29.732H88.9079V24.116H91.3079ZM134.056 29.996V9.5H136.456V29.996H134.056ZM124.384 29.036C120.736 29.036 118.168 26.012 118.168 19.508C118.168 13.004 120.736 9.98 124.384 9.98C128.008 9.98 130.576 13.004 130.576 19.508C130.576 26.012 128.008 29.036 124.384 29.036ZM124.384 26.852C126.52 26.852 128.2 24.716 128.2 19.508C128.2 14.324 126.52 12.164 124.384 12.164C122.2 12.164 120.544 14.324 120.544 19.508C120.544 24.716 122.2 26.852 124.384 26.852ZM157.334 9.5H159.686V22.316H157.334V17.612H153.59V15.596H157.334V13.748H153.59V11.732H157.334V9.5ZM141.23 14.732H149.798V11.996H141.182V10.004H152.15V16.676H143.582V19.46H148.19C151.046 19.46 153.422 19.172 154.646 18.668V20.66C153.47 21.116 150.974 21.452 148.022 21.452H141.23V14.732ZM142.07 25.484V23.444H159.686V29.996H157.262V25.484H142.07ZM180.396 9.5H182.772V29.996H180.396V19.148H175.116V16.916H180.396V9.5ZM172.044 10.1C172.044 12.908 171.828 15.452 171.444 17.732L177.852 27.524L175.86 28.82L170.748 20.756C169.356 25.604 166.884 28.508 163.644 28.772V26.348C167.58 25.7 169.596 18.62 169.62 10.004L172.044 10.1Z" fill="#595959"/>
<defs>
<linearGradient id="paint0_linear_173_1261" x1="34.6666" y1="24.3039" x2="18.75" y2="28.8333" gradientUnits="userSpaceOnUse">
<stop stop-color="#FFEFC2"/>
<stop offset="1" stop-color="#FFBA42"/>
</linearGradient>
<linearGradient id="paint1_linear_173_1261" x1="34.3333" y1="25.8333" x2="32" y2="25.8333" gradientUnits="userSpaceOnUse">
<stop stop-color="#001823"/>
<stop offset="1" stop-color="#005E8A"/>
</linearGradient>
<linearGradient id="paint2_linear_173_1261" x1="14.6667" y1="13.3333" x2="18.7479" y2="35.6554" gradientUnits="userSpaceOnUse">
<stop stop-color="#F5A201"/>
<stop offset="1" stop-color="#FFD35B"/>
</linearGradient>
</defs>
</svg>
