<svg width="8" height="20" viewBox="0 0 8 20" fill="none" xmlns="http://www.w3.org/2000/svg">
<path d="M4 9V19M4 19L1 16M4 19L7 16M2 3C2 3.53043 2.21071 4.03914 2.58579 4.41421C2.96086 4.78929 3.46957 5 4 5C4.53043 5 5.03914 4.78929 5.41421 4.41421C5.78929 4.03914 6 3.53043 6 3C6 2.46957 5.78929 1.96086 5.41421 1.58579C5.03914 1.21071 4.53043 1 4 1C3.46957 1 2.96086 1.21071 2.58579 1.58579C2.21071 1.96086 2 2.46957 2 3Z" stroke="#404040" stroke-width="2" stroke-linecap="round" stroke-linejoin="round"/>
</svg>
