<svg width="40" height="40" viewBox="0 0 40 40" fill="none" xmlns="http://www.w3.org/2000/svg">
<circle cx="20" cy="20" r="18" fill="#FFBA42" stroke="white" stroke-width="4"/>
<path d="M18.2227 22.2773H16.9219V19.5117H15.4219V18.4336H16.9219V17.4258H15.4219V16.3711H16.9219V14.4492H18.2227V22.2773ZM15.2695 16.2891H14.332V19.6699C14.8398 19.6309 15.2266 19.5977 15.4922 19.5703L15.5508 20.5195C14.6602 20.6641 13.707 20.7617 12.6914 20.8125C11.6797 20.8594 10.6172 20.8828 9.50391 20.8828L9.36328 19.8047L10.5586 19.7988V16.2891H9.63281V15.2461H15.2695V16.2891ZM18.4922 24.832H11.2617V21.668H12.5742V23.7773H18.4922V24.832ZM13.0781 19.7402V16.2891H11.8242V19.7812L13.0781 19.7402ZM25.9688 16.125H23.7422C23.75 16.543 23.8555 16.9453 24.0586 17.332C24.2617 17.7148 24.5566 18.0566 24.9434 18.3574C25.334 18.6543 25.8008 18.8789 26.3438 19.0312L25.6875 20.0508C25.0859 19.8711 24.5645 19.5996 24.123 19.2363C23.6855 18.873 23.3438 18.4414 23.0977 17.9414C22.8555 18.4805 22.5078 18.9473 22.0547 19.3418C21.6055 19.7363 21.0703 20.0312 20.4492 20.2266L19.793 19.207C20.3398 19.0469 20.8105 18.8086 21.2051 18.4922C21.5996 18.1758 21.8984 17.8145 22.1016 17.4082C22.3086 16.998 22.418 16.5703 22.4297 16.125H20.1445V15.082H25.9688V16.125ZM28.5469 20.1914H27.2344V14.4492H28.5469V20.1914ZM22.8281 21.75H27.2461V20.6602H28.5469V24.9141H21.5391V20.6602H22.8281V21.75ZM27.2461 23.8594V22.7578H22.8281V23.8594H27.2461Z" fill="#262626"/>
</svg>
